<svg xmlns="http://www.w3.org/2000/svg" width="100" height="52" viewBox="0 0 100 52" fill="none"><path d="M73.6742 8.89995C72.3907 7.84917 70.6629 7.39784 68.4133 7.23564C70.7123 4.16088 73.6954 1.77724 78.1947 0.0847168L80.5854 4.61222C77.5176 5.72647 75.3456 7.08049 73.6672 8.89995H73.6742ZM66.2271 10.7053C65.1834 12.6376 64.2525 14.7674 63.3004 17.1087C62.5106 18.8435 61.488 21.0932 60.5007 22.9197C58.9351 26.4317 55.9591 28.7871 51.2694 30.4867L53.6742 35.0283C62.1862 31.8337 65.268 26.1567 68.5755 18.0114C69.2948 16.4176 70.2609 14.3442 71.1425 12.6517C71.0578 12.3696 70.9591 12.1299 70.8251 11.9394C70.2398 11.1284 69.1608 10.7335 66.2341 10.7053H66.2271Z" fill="#EF2AC1"></path><path d="M51.1636 7.40479H46.6361V27.7574H51.1636V7.40479Z" fill="white"></path><path d="M26.1001 7.40479H21.5726V27.7574H26.1001V7.40479Z" fill="white"></path><path d="M98.4908 10.0072C96.7913 7.87034 93.3851 7.43311 89.2454 7.43311C84.2948 7.43311 80.4231 8.99869 80.3879 9.0128V27.7575H85.2045V11.8337C85.2045 11.5727 85.3808 11.34 85.6347 11.2836C86.5162 11.0791 87.6375 10.9804 89.2384 10.9804C92.426 10.9804 93.8999 11.3753 94.5064 12.2215C95.134 13.089 95.134 15.0847 95.134 17.8492V27.7646H99.9506V17.8492C99.9506 14.3654 99.9506 11.8478 98.4838 10.0072" fill="white"></path><path d="M10.7123 24.4148C7.52468 24.4148 5.75459 24.0199 5.15515 23.1736C4.5275 22.3062 4.52751 20.3104 4.52751 17.546C4.52751 14.7815 4.5275 12.7858 5.15515 11.9183C5.76164 11.0721 7.53879 10.6842 10.7123 10.6842L16.4245 10.7829V7.53894C15.2327 7.33443 12.426 7.13696 10.7123 7.13696C6.57264 7.13696 3.17349 7.5742 1.46686 9.71101C1.3451e-06 11.5516 0 14.0693 0 17.553C0 21.0368 1.3451e-06 23.5545 1.46686 25.3951C3.16643 27.5319 6.57264 27.9691 10.7123 27.9691C12.6093 27.9691 15.0705 27.8774 16.5797 27.5671V24.3231L10.7123 24.4219V24.4148Z" fill="white"></path><path d="M10.7123 24.4148C7.52468 24.4148 5.75459 24.0199 5.15515 23.1736C4.5275 22.3062 4.52751 20.3104 4.52751 17.546C4.52751 14.7815 4.5275 12.7858 5.15515 11.9183C5.76164 11.0721 7.53879 10.6842 10.7123 10.6842L16.4245 10.7829V7.53894C15.2327 7.33443 12.426 7.13696 10.7123 7.13696C6.57264 7.13696 3.17349 7.5742 1.46686 9.71101C1.3451e-06 11.5516 0 14.0693 0 17.553C0 21.0368 1.3451e-06 23.5545 1.46686 25.3951C3.16643 27.5319 6.57264 27.9691 10.7123 27.9691C12.6093 27.9691 15.0705 27.8774 16.5797 27.5671V24.3231L10.7123 24.4219V24.4148Z" fill="white"></path><path d="M48.8999 4.8378C49.859 4.8378 50.5853 4.73907 50.9803 4.23837C51.3188 3.80818 51.3188 3.22285 51.3188 2.4189C51.3188 1.61495 51.3188 1.02257 50.9803 0.599437C50.5853 0.105784 49.859 0 48.8999 0C47.9408 0 47.2144 0.0987322 46.8195 0.599437C46.481 1.02962 46.481 1.61495 46.481 2.4189C46.481 3.22285 46.481 3.81523 46.8195 4.23837C47.2144 4.73202 47.9408 4.8378 48.8999 4.8378Z" fill="white"></path><path d="M23.8364 4.8378C24.7955 4.8378 25.5219 4.73907 25.9168 4.23837C26.2553 3.80818 26.2553 3.22285 26.2553 2.4189C26.2553 1.61495 26.2553 1.02257 25.9168 0.599437C25.5219 0.105784 24.7955 0 23.8364 0C22.8773 0 22.1509 0.0987322 21.756 0.599437C21.4175 1.02962 21.4175 1.61495 21.4175 2.4189C21.4175 3.22285 21.4175 3.81523 21.756 4.23837C22.1509 4.73202 22.8773 4.8378 23.8364 4.8378Z" fill="white"></path><path d="M43.0677 7.56701C42.1086 7.28493 38.8011 7.16504 38.6813 7.16504C35.5007 7.16504 32.8914 7.60228 31.5797 9.73909C30.5289 11.4528 30.4584 13.7588 30.4514 16.8759C30.4514 16.883 30.4514 24.3442 30.4514 26.9041V27.7504H34.6827V17.5388C34.6827 14.7743 34.6827 12.7786 35.3103 11.9112C35.8181 11.2059 37.1298 10.7052 39.4217 10.7052C41.7137 10.7052 43.0677 10.7969 43.0677 10.7969V7.55996V7.56701Z" fill="white"></path><path d="M48.8999 4.8378C49.859 4.8378 50.5853 4.73907 50.9803 4.23837C51.3188 3.80818 51.3188 3.22285 51.3188 2.4189C51.3188 1.61495 51.3188 1.02257 50.9803 0.599437C50.5853 0.105784 49.859 0 48.8999 0C47.9408 0 47.2144 0.0987322 46.8195 0.599437C46.481 1.02962 46.481 1.61495 46.481 2.4189C46.481 3.22285 46.481 3.81523 46.8195 4.23837C47.2144 4.73202 47.9408 4.8378 48.8999 4.8378Z" fill="white"></path><path d="M74.4923 9.73201C72.7927 7.59519 70.0141 7.15796 65.8815 7.15796C61.7489 7.15796 58.9704 7.59519 57.2708 9.73201C55.804 11.5726 55.804 14.0832 55.804 17.5599C55.804 21.0367 55.804 23.5472 57.2708 25.3879C57.5529 25.7405 57.8632 26.0508 58.2088 26.3117C59.1679 25.3173 59.9224 24.196 60.4866 22.9196C60.543 22.8138 60.6065 22.701 60.6629 22.5952C60.3244 21.5585 60.3244 19.8166 60.3244 17.5599C60.3244 14.8025 60.3244 12.8068 60.945 11.9393C61.5515 11.0931 62.6939 10.7052 65.8745 10.7052C69.055 10.7052 70.1975 11.1001 70.804 11.9393C71.4246 12.8068 71.4245 14.8025 71.4245 17.5599C71.4245 20.3173 71.4246 22.3131 70.804 23.1805C70.1975 24.0268 69.055 24.4147 65.8745 24.4147C65.7899 24.4147 65.7123 24.4147 65.6347 24.4147C64.9647 25.6558 64.2454 26.8124 63.4415 27.8843C64.1961 27.9337 65.0071 27.9549 65.8745 27.9549C70.0071 27.9549 72.7856 27.5176 74.4852 25.3808C75.9521 23.5402 75.9521 21.0296 75.9521 17.5529C75.9521 14.0762 75.9521 11.5656 74.4852 9.72495L74.4923 9.73201Z" fill="white"></path><path d="M0.380798 48.8717V39.4641H1.39631V48.8717H0.380798Z" fill="white"></path><path d="M3.75171 42.3979C3.97738 42.2851 4.2101 42.1863 4.44988 42.0947C4.68965 42.003 4.93648 41.9325 5.1833 41.876C5.43013 41.8196 5.68401 41.7773 5.94494 41.7491C6.20587 41.7209 6.4668 41.7068 6.72773 41.7068C7.41179 41.7068 7.96186 41.8055 8.36384 42.01C8.76581 42.2145 9.06201 42.5037 9.24536 42.8916C9.42872 43.2794 9.5204 43.7449 9.5204 44.2879V48.8718H8.50488V44.2879C8.50488 44.1186 8.48373 43.9423 8.44141 43.7519C8.3991 43.5615 8.31448 43.3852 8.19459 43.2089C8.0747 43.0326 7.88429 42.8916 7.63041 42.7858C7.37653 42.68 7.03803 42.6236 6.6149 42.6236C6.32576 42.6236 6.02251 42.6447 5.71222 42.6941C5.40192 42.7435 5.08457 42.814 4.76723 42.9057V48.8718H3.75171V42.3979Z" fill="white"></path><path d="M13.7941 49.0834C13.2863 49.0834 12.8632 49.034 12.5176 48.9282C12.1721 48.8224 11.8195 48.6814 11.4528 48.491V47.4191C11.7419 47.5813 12.0028 47.7153 12.2285 47.8281C12.4542 47.9409 12.6869 48.0255 12.9196 48.0749C13.1523 48.1243 13.4203 48.1525 13.7236 48.1525C14.1961 48.1525 14.5769 48.0467 14.8731 47.8422C15.1693 47.6377 15.3174 47.3697 15.3174 47.0382C15.3174 46.7773 15.2468 46.5728 15.0987 46.4318C14.9506 46.2907 14.7673 46.1708 14.5416 46.0791C14.3159 45.9875 14.0832 45.8887 13.8364 45.783C13.5614 45.7054 13.2863 45.6278 13.0113 45.5361C12.7363 45.4444 12.4824 45.3316 12.2497 45.1835C12.0169 45.0354 11.8336 44.8521 11.6925 44.6193C11.5515 44.3866 11.481 44.0904 11.481 43.7237C11.481 43.357 11.5515 43.0608 11.6996 42.8069C11.8477 42.553 12.0381 42.3415 12.2708 42.1793C12.5035 42.0171 12.7715 41.8972 13.0607 41.8196C13.3498 41.742 13.646 41.7068 13.9351 41.7068C14.3583 41.7068 14.7179 41.7632 15.0212 41.876C15.3244 41.9889 15.6347 42.1158 15.9521 42.2569V43.2724C15.5924 43.082 15.275 42.9339 14.993 42.814C14.7109 42.6941 14.3794 42.6377 13.9915 42.6377C13.6037 42.6377 13.2581 42.7152 12.9549 42.8704C12.6516 43.0255 12.4965 43.2653 12.4965 43.5827C12.4965 43.8436 12.5741 44.0552 12.7292 44.2103C12.8844 44.3655 13.0889 44.4853 13.3427 44.577C13.5966 44.6687 13.8717 44.7533 14.1608 44.838C14.3935 44.9155 14.6403 44.9931 14.8942 45.0848C15.1481 45.1765 15.3808 45.2893 15.5994 45.4374C15.8181 45.5855 15.9944 45.7759 16.1284 46.0086C16.2624 46.2413 16.3329 46.5446 16.3329 46.9113C16.3329 47.412 16.2059 47.821 15.9521 48.1454C15.6982 48.4698 15.3738 48.7096 14.9859 48.8577C14.598 49.0058 14.1961 49.0834 13.7941 49.0834Z" fill="white"></path><path d="M21.0296 49.0693C20.8251 49.0693 20.5924 49.0411 20.3314 48.9846C20.0705 48.9282 19.8237 48.8577 19.5768 48.7731C19.33 48.6884 19.1185 48.5968 18.928 48.5051L19.2807 48.1525V51.9325H18.2651V43.1031C18.2651 42.814 18.3568 42.5742 18.5402 42.3979C18.7235 42.2216 18.9633 42.0806 19.2524 41.9818C19.5416 41.8831 19.8519 41.8126 20.1833 41.7703C20.5148 41.7279 20.8251 41.7068 21.1142 41.7068C21.6784 41.7068 22.2073 41.8267 22.708 42.0594C23.2087 42.2921 23.6107 42.6941 23.921 43.2512C24.2313 43.8083 24.3864 44.57 24.3864 45.5291C24.3864 46.2554 24.2595 46.8831 23.9986 47.412C23.7376 47.9409 23.3639 48.3499 22.8632 48.6391C22.3625 48.9282 21.756 49.0693 21.0296 49.0693ZM21.0296 48.1384C21.5444 48.1384 21.9746 48.0255 22.306 47.8069C22.6375 47.5883 22.8914 47.278 23.0606 46.8831C23.2299 46.4882 23.3145 46.0368 23.3145 45.5291C23.3145 45.0213 23.2581 44.5488 23.1453 44.1045C23.0324 43.6602 22.8138 43.3076 22.4964 43.0396C22.1791 42.7717 21.7137 42.6377 21.1001 42.6377C20.6135 42.6377 20.1833 42.6941 19.8237 42.8069C19.464 42.9198 19.2807 43.082 19.2807 43.2865V47.6447C19.5698 47.814 19.866 47.9409 20.1551 48.0185C20.4443 48.0961 20.7405 48.1384 21.0296 48.1384Z" fill="white"></path><path d="M26.3188 40.5784V39.4641H27.4471V40.5784H26.3188ZM26.3752 48.8717V41.8336H27.3907V48.8717H26.3752Z" fill="white"></path><path d="M29.732 48.8718V42.3979C29.8448 42.3485 30.0634 42.271 30.3878 42.1581C30.7122 42.0453 31.1001 41.9395 31.5585 41.8478C32.0169 41.7562 32.4894 41.7068 32.976 41.7068C33.0536 41.7068 33.1241 41.7138 33.2017 41.735C33.2792 41.7562 33.3498 41.7703 33.4273 41.7914V42.6941C33.1805 42.6659 32.9478 42.6518 32.7151 42.6518C32.4823 42.6518 32.2637 42.6659 32.0451 42.687C31.8265 42.7082 31.6149 42.7435 31.3963 42.7787C31.1777 42.814 30.9661 42.8563 30.7475 42.8916V48.8718H29.732Z" fill="white"></path><path d="M37.5035 49.0834C37.1932 49.0834 36.8829 49.0481 36.5656 48.9846C36.2482 48.9212 35.9591 48.8083 35.6911 48.6461C35.4231 48.4839 35.2045 48.2653 35.0423 47.9903C34.8801 47.7152 34.7955 47.3626 34.7955 46.9395C34.7955 46.3542 34.9083 45.8887 35.1269 45.5361C35.3455 45.1835 35.6558 44.9296 36.0437 44.7745C36.4316 44.6193 36.8829 44.5418 37.3907 44.5418C37.7785 44.5418 38.11 44.5629 38.3921 44.6123C38.6742 44.6616 38.9281 44.7251 39.1467 44.8168C39.3653 44.9085 39.5698 45.0072 39.7461 45.12L39.9436 46.0509C39.725 45.8887 39.4147 45.7547 39.0056 45.6349C38.5966 45.515 38.1453 45.4586 37.6587 45.4586C37.0663 45.4586 36.6079 45.5714 36.2905 45.7971C35.9732 46.0227 35.811 46.3542 35.811 46.7844C35.811 47.1299 35.9097 47.412 36.1001 47.6165C36.2905 47.821 36.5374 47.9691 36.8336 48.0538C37.1297 48.1384 37.433 48.1807 37.7433 48.1807C38.3568 48.1807 38.8152 48.1384 39.1326 48.0467C39.4499 47.955 39.6051 47.7505 39.6051 47.4332V44.2033C39.6051 43.6602 39.4429 43.2583 39.1255 43.0044C38.8082 42.7505 38.3498 42.6236 37.7574 42.6236C37.3836 42.6236 36.9817 42.68 36.5656 42.7858C36.1495 42.8916 35.7898 43.0679 35.4866 43.3006V42.2851C35.7757 42.0947 36.1706 41.9536 36.6572 41.8549C37.1438 41.7562 37.6234 41.7068 38.0818 41.7068C38.3921 41.7068 38.6812 41.735 38.9422 41.7985C39.2031 41.8619 39.4429 41.9466 39.6474 42.0664C39.8519 42.1863 40.0282 42.3344 40.1763 42.5178C40.3244 42.7011 40.4372 42.9127 40.5148 43.1525C40.5924 43.3923 40.6347 43.6602 40.6347 43.9635V47.3767C40.6347 47.8775 40.4866 48.2442 40.1904 48.491C39.8942 48.7378 39.5063 48.893 39.0338 48.9705C38.5613 49.0481 38.0465 49.0834 37.5035 49.0834Z" fill="white"></path><path d="M49.9435 49.0834C49.2736 49.0834 48.6953 48.9423 48.2087 48.6673C47.7221 48.3923 47.3413 47.9762 47.0803 47.4191C46.8194 46.8619 46.6854 46.1708 46.6854 45.3457C46.6854 44.1327 46.9605 43.223 47.5105 42.6165C48.0606 42.01 48.8152 41.7068 49.7743 41.7068C50.5289 41.7068 51.1283 41.876 51.5867 42.2145C52.0451 42.5531 52.3695 43.0114 52.567 43.5827C52.7644 44.1539 52.8561 44.8027 52.849 45.5291H47.1932L47.2637 44.5982H52.1861L51.7912 44.7392C51.763 44.034 51.5867 43.5051 51.2623 43.1595C50.9379 42.814 50.4442 42.6377 49.7743 42.6377C49.3159 42.6377 48.928 42.7223 48.6248 42.8916C48.3215 43.0608 48.0888 43.357 47.9407 43.7731C47.7926 44.1892 47.715 44.7745 47.715 45.5291C47.715 46.3824 47.9125 47.0382 48.3145 47.4825C48.7165 47.9268 49.2736 48.1525 50 48.1525C50.3455 48.1525 50.6699 48.1243 50.959 48.0749C51.2482 48.0255 51.5162 47.948 51.763 47.8563C52.0098 47.7646 52.2214 47.6588 52.4118 47.546V48.5897C52.0733 48.7519 51.6995 48.8718 51.2905 48.9564C50.8815 49.0411 50.4301 49.0834 49.9435 49.0834Z" fill="white"></path><path d="M55.7969 48.8717H54.7814V39.1538H55.7969V48.8717Z" fill="white"></path><path d="M62.8491 48.8718V42.7646H61.6361V41.8337H62.8491V41.4529C62.8491 40.9381 62.9055 40.515 63.0254 40.1906C63.1453 39.8662 63.2934 39.6123 63.4838 39.4289C63.6742 39.2456 63.8717 39.1116 64.0762 39.034C64.2807 38.9565 64.4781 38.9071 64.6686 38.893C64.859 38.8789 65.0071 38.8718 65.1199 38.8718C65.2539 38.8718 65.3738 38.8789 65.4866 38.893C65.5994 38.9071 65.7052 38.9282 65.7969 38.9565V39.8591C65.7334 39.838 65.6559 39.8239 65.5712 39.8168C65.4866 39.8098 65.3949 39.8027 65.2891 39.8027C65.1269 39.8027 64.9647 39.8098 64.7955 39.8309C64.6262 39.8521 64.4711 39.9085 64.33 40.0072C64.189 40.106 64.0762 40.2682 63.9915 40.4868C63.9069 40.7054 63.8646 41.0227 63.8646 41.4388V41.8337H65.7969V42.7646H63.8646V48.8718H62.8491Z" fill="white"></path><path d="M70.4654 49.0834C69.8449 49.0834 69.3159 48.9776 68.8717 48.759C68.4274 48.5404 68.0959 48.2301 67.8632 47.814C67.6305 47.3979 67.5176 46.8902 67.5176 46.2907V41.8337H68.5332V46.0651C68.5332 46.7773 68.6883 47.3062 69.0057 47.6377C69.323 47.9691 69.8096 48.1384 70.4654 48.1384C71.1213 48.1384 71.6079 47.9691 71.9253 47.6377C72.2426 47.3062 72.3978 46.7773 72.3978 46.0651V41.8337H73.4133V46.2907C73.4133 47.1863 73.1594 47.8704 72.6446 48.357C72.1298 48.8436 71.4034 49.0834 70.4654 49.0834Z" fill="white"></path><path d="M77.9126 48.9846C77.4119 48.9846 76.9958 48.8295 76.6573 48.5262C76.3188 48.223 76.1495 47.7646 76.1495 47.1651V42.7646H74.9224V41.8337H76.1495V39.845H77.165V41.8337H78.9845V42.7646H77.165V46.8407C77.165 47.2357 77.2285 47.5319 77.3484 47.7293C77.4683 47.9268 77.7221 48.0255 78.0959 48.0255C78.2652 48.0255 78.4274 48.0114 78.5896 47.9761C78.7518 47.9409 78.8787 47.9056 78.9845 47.8563V48.8153C78.8505 48.8647 78.6883 48.9 78.4838 48.9352C78.2793 48.9705 78.0889 48.9846 77.9126 48.9846Z" fill="white"></path><path d="M83.7941 49.0834C83.1735 49.0834 82.6446 48.9776 82.2003 48.759C81.756 48.5404 81.4245 48.2301 81.1918 47.814C80.9591 47.3979 80.8463 46.8902 80.8463 46.2907V41.8337H81.8618V46.0651C81.8618 46.7773 82.0169 47.3062 82.3343 47.6377C82.6516 47.9691 83.1382 48.1384 83.7941 48.1384C84.4499 48.1384 84.9365 47.9691 85.2539 47.6377C85.5712 47.3062 85.7264 46.7773 85.7264 46.0651V41.8337H86.7419V46.2907C86.7419 47.1863 86.488 47.8704 85.9732 48.357C85.4584 48.8436 84.732 49.0834 83.7941 49.0834Z" fill="white"></path><path d="M89.0268 48.8718V42.3979C89.1396 42.3485 89.3582 42.271 89.6826 42.1581C90.007 42.0453 90.3949 41.9395 90.8533 41.8478C91.3117 41.7562 91.7842 41.7068 92.2708 41.7068C92.3484 41.7068 92.4189 41.7138 92.4965 41.735C92.574 41.7562 92.6446 41.7703 92.7221 41.7914V42.6941C92.4753 42.6659 92.2426 42.6518 92.0099 42.6518C91.7771 42.6518 91.5585 42.6659 91.3399 42.687C91.1213 42.7082 90.9097 42.7435 90.6911 42.7787C90.4725 42.814 90.2609 42.8563 90.0423 42.8916V48.8718H89.0268Z" fill="white"></path><path d="M96.7701 49.0834C95.67 49.0834 94.8519 48.759 94.323 48.1031C93.7941 47.4473 93.5261 46.5375 93.5261 45.3739C93.5261 44.2103 93.8082 43.2371 94.3653 42.6236C94.9224 42.01 95.7194 41.7068 96.7419 41.7068C97.5036 41.7068 98.1241 41.8619 98.6037 42.1652C99.0832 42.4684 99.4359 42.8986 99.6615 43.4487C99.8872 43.9987 100 44.6405 100 45.3739C100 46.5305 99.7179 47.4402 99.1608 48.0961C98.6037 48.7519 97.8068 49.0834 96.7701 49.0834ZM96.756 48.1525C97.3273 48.1525 97.7786 48.0255 98.0959 47.7787C98.4133 47.5319 98.646 47.1934 98.78 46.7773C98.914 46.3612 98.9845 45.8887 98.9845 45.3739C98.9845 44.8168 98.914 44.3372 98.7729 43.9282C98.6319 43.5192 98.3992 43.2018 98.0748 42.9762C97.7504 42.7505 97.3131 42.6377 96.756 42.6377C96.1989 42.6377 95.7476 42.7576 95.4302 43.0044C95.1129 43.2512 94.8801 43.5756 94.7461 43.9846C94.6122 44.3937 94.5416 44.8591 94.5416 45.3739C94.5416 46.199 94.7038 46.869 95.0353 47.3838C95.3667 47.8986 95.938 48.1525 96.756 48.1525Z" fill="white"></path></svg>